<svg width="45" height="45" viewBox="0 0 45 45" fill="none" xmlns="http://www.w3.org/2000/svg">
<rect width="45" height="45" rx="5" fill="#E3F0FC"/>
<path d="M15.7273 31V29.5833C15.7273 27.7047 16.4935 25.903 17.8574 24.5747C19.2213 23.2463 21.0712 22.5 23 22.5M23 22.5C24.9288 22.5 26.7787 23.2463 28.1426 24.5747C29.5065 25.903 30.2727 27.7047 30.2727 29.5833V31M23 22.5C24.1573 22.5 25.2672 22.0522 26.0856 21.2552C26.9039 20.4582 27.3636 19.3772 27.3636 18.25C27.3636 17.1228 26.9039 16.0418 26.0856 15.2448C25.2672 14.4478 24.1573 14 23 14C21.8427 14 20.7328 14.4478 19.9144 15.2448C19.0961 16.0418 18.6364 17.1228 18.6364 18.25C18.6364 19.3772 19.0961 20.4582 19.9144 21.2552C20.7328 22.0522 21.8427 22.5 23 22.5ZM7 31V29.5833C7 28.4562 7.45974 27.3752 8.27808 26.5781C9.09642 25.7811 10.2063 25.3333 11.3636 25.3333M11.3636 25.3333C12.1352 25.3333 12.8751 25.0348 13.4207 24.5035C13.9662 23.9721 14.2727 23.2514 14.2727 22.5C14.2727 21.7486 13.9662 21.0279 13.4207 20.4965C12.8751 19.9652 12.1352 19.6667 11.3636 19.6667C10.5921 19.6667 9.85216 19.9652 9.3066 20.4965C8.76104 21.0279 8.45455 21.7486 8.45455 22.5C8.45455 23.2514 8.76104 23.9721 9.3066 24.5035C9.85216 25.0348 10.5921 25.3333 11.3636 25.3333ZM39 31V29.5833C39 28.4562 38.5403 27.3752 37.7219 26.5781C36.9036 25.7811 35.7937 25.3333 34.6364 25.3333M34.6364 25.3333C35.4079 25.3333 36.1478 25.0348 36.6934 24.5035C37.239 23.9721 37.5455 23.2514 37.5455 22.5C37.5455 21.7486 37.239 21.0279 36.6934 20.4965C36.1478 19.9652 35.4079 19.6667 34.6364 19.6667C33.8648 19.6667 33.1249 19.9652 32.5793 20.4965C32.0338 21.0279 31.7273 21.7486 31.7273 22.5C31.7273 23.2514 32.0338 23.9721 32.5793 24.5035C33.1249 25.0348 33.8648 25.3333 34.6364 25.3333Z" stroke="#5C9CD5" stroke-width="1.5" stroke-linecap="round" stroke-linejoin="round"/>
</svg>
