<svg width="45" height="45" viewBox="0 0 45 45" fill="none" xmlns="http://www.w3.org/2000/svg">
<rect width="45" height="45" rx="5" fill="#E3F0FC"/>
<path d="M15.25 32.5589C14.5396 32.5589 13.9317 32.3062 13.4262 31.8007C12.9207 31.2952 12.6675 30.6868 12.6667 29.9756V27.3922C12.6667 27.0262 12.7907 26.7197 13.0387 26.4726C13.2867 26.2254 13.5932 26.1014 13.9584 26.1006C14.3235 26.0997 14.6305 26.2237 14.8793 26.4726C15.1282 26.7214 15.2517 27.028 15.25 27.3922V29.9756H30.75V27.3922C30.75 27.0262 30.874 26.7197 31.122 26.4726C31.37 26.2254 31.6766 26.1014 32.0417 26.1006C32.4068 26.0997 32.7138 26.2237 32.9626 26.4726C33.2115 26.7214 33.3351 27.028 33.3334 27.3922V29.9756C33.3334 30.686 33.0806 31.2943 32.5751 31.8007C32.0697 32.307 31.4613 32.5597 30.75 32.5589H15.25ZM21.7084 16.8651L19.2865 19.287C19.0281 19.5453 18.7216 19.6693 18.3668 19.659C18.012 19.6487 17.705 19.5139 17.4459 19.2547C17.209 18.9964 17.085 18.695 17.0739 18.3506C17.0627 18.0061 17.1867 17.7047 17.4459 17.4464L22.0959 12.7964C22.225 12.6672 22.365 12.5759 22.5156 12.5226C22.6663 12.4692 22.8278 12.442 23 12.4412C23.1722 12.4403 23.3337 12.4674 23.4844 12.5226C23.6351 12.5777 23.775 12.6689 23.9042 12.7964L28.5542 17.4464C28.8125 17.7047 28.9365 18.0061 28.9262 18.3506C28.9159 18.695 28.7919 18.9964 28.5542 19.2547C28.2959 19.5131 27.9893 19.6478 27.6345 19.659C27.2797 19.6702 26.9728 19.5462 26.7136 19.287L24.2917 16.8651V26.1006C24.2917 26.4665 24.1677 26.7735 23.9197 27.0215C23.6717 27.2695 23.3651 27.3931 23 27.3922C22.6349 27.3914 22.3284 27.2674 22.0804 27.0202C21.8324 26.7731 21.7084 26.4665 21.7084 26.1006V16.8651Z" fill="#5C9CD5"/>
</svg>
