<svg width="15" height="17" viewBox="0 0 15 17" fill="none" xmlns="http://www.w3.org/2000/svg">
<path d="M14.5 6.21429V14.2143C14.5 14.8205 14.2542 15.4019 13.8166 15.8305C13.379 16.2592 12.7855 16.5 12.1667 16.5H2.83333C2.21449 16.5 1.621 16.2592 1.18342 15.8305C0.745833 15.4019 0.5 14.8205 0.5 14.2143V2.78571C0.5 2.17951 0.745833 1.59812 1.18342 1.16947C1.621 0.740816 2.21449 0.5 2.83333 0.5H8.66667M14.5 6.21429L8.66667 0.5M14.5 6.21429H11C10.3812 6.21429 9.78767 5.97347 9.35008 5.54482C8.9125 5.11616 8.66667 4.53478 8.66667 3.92857V0.5M2.83333 8.5H8.66667M2.83333 10.7857H11M2.83333 13.0714H6.33333" stroke="#5C9CD5" stroke-linecap="round" stroke-linejoin="round"/>
</svg>
