<svg width="45" height="45" viewBox="0 0 45 45" fill="none" xmlns="http://www.w3.org/2000/svg">
<rect width="45" height="45" rx="5" fill="#E3F0FC"/>
<path d="M26.477 23.3904L27.992 31.9164C28.009 32.0168 27.9949 32.12 27.9516 32.2121C27.9084 32.3043 27.838 32.3811 27.7499 32.4322C27.6619 32.4833 27.5603 32.5063 27.4588 32.4981C27.3573 32.4899 27.2607 32.4509 27.182 32.3864L23.602 29.6994C23.4292 29.5703 23.2192 29.5005 23.0035 29.5005C22.7878 29.5005 22.5778 29.5703 22.405 29.6994L18.819 32.3854C18.7403 32.4498 18.6439 32.4887 18.5425 32.4969C18.4411 32.5051 18.3397 32.4822 18.2517 32.4312C18.1636 32.3803 18.0933 32.3037 18.0499 32.2117C18.0066 32.1197 17.9923 32.0167 18.009 31.9164L19.523 23.3904" stroke="#5C9CD5" stroke-width="2" stroke-linecap="round" stroke-linejoin="round"/>
<path d="M23 24.5004C26.3137 24.5004 29 21.8141 29 18.5004C29 15.1867 26.3137 12.5004 23 12.5004C19.6863 12.5004 17 15.1867 17 18.5004C17 21.8141 19.6863 24.5004 23 24.5004Z" stroke="#5C9CD5" stroke-width="2" stroke-linecap="round" stroke-linejoin="round"/>
</svg>
