<svg width="45" height="45" viewBox="0 0 45 45" fill="none" xmlns="http://www.w3.org/2000/svg">
<rect width="45" height="45" rx="5" fill="#E3F0FC"/>
<path d="M23 31.0827C21.3468 30.1282 19.4715 29.6257 17.5625 29.6257C15.6535 29.6257 13.7782 30.1282 12.125 31.0827V15.3743C13.7782 14.4199 15.6535 13.9174 17.5625 13.9174C19.4715 13.9174 21.3468 14.4199 23 15.3743M23 31.0827C24.6532 30.1282 26.5285 29.6257 28.4375 29.6257C30.3465 29.6257 32.2218 30.1282 33.875 31.0827V15.3743C32.2218 14.4199 30.3465 13.9174 28.4375 13.9174C26.5285 13.9174 24.6532 14.4199 23 15.3743M23 31.0827V15.3743" stroke="#76ACDD" stroke-width="2" stroke-linecap="round" stroke-linejoin="round"/>
</svg>
