<svg width="45" height="45" viewBox="0 0 45 45" fill="none" xmlns="http://www.w3.org/2000/svg">
<rect width="45" height="45" rx="5" fill="#E3F0FC"/>
<path fill-rule="evenodd" clip-rule="evenodd" d="M23 16.3125C23.3757 16.3125 23.7361 16.1676 24.0017 15.9098C24.2674 15.6519 24.4167 15.3022 24.4167 14.9375C24.4167 14.5728 24.2674 14.2231 24.0017 13.9652C23.7361 13.7074 23.3757 13.5625 23 13.5625C22.6243 13.5625 22.2639 13.7074 21.9983 13.9652C21.7326 14.2231 21.5833 14.5728 21.5833 14.9375C21.5833 15.3022 21.7326 15.6519 21.9983 15.9098C22.2639 16.1676 22.6243 16.3125 23 16.3125ZM23 11.5C23.8165 11.4998 24.6079 11.7735 25.2404 12.2746C25.8729 12.7757 26.3075 13.4736 26.4708 14.25H30.0833C30.4591 14.25 30.8194 14.3949 31.0851 14.6527C31.3507 14.9106 31.5 15.2603 31.5 15.625V32.125C31.5 32.4897 31.3507 32.8394 31.0851 33.0973C30.8194 33.3551 30.4591 33.5 30.0833 33.5H15.9167C15.5409 33.5 15.1806 33.3551 14.9149 33.0973C14.6493 32.8394 14.5 32.4897 14.5 32.125V15.625C14.5 15.2603 14.6493 14.9106 14.9149 14.6527C15.1806 14.3949 15.5409 14.25 15.9167 14.25H19.5292C19.6925 13.4736 20.1271 12.7757 20.7596 12.2746C21.3921 11.7735 22.1835 11.4998 23 11.5ZM21.5833 18.375H26.5417V16.3125H29.375V31.4375H16.625V16.3125H19.4583V18.375H21.5833ZM26.5842 22.885C26.6886 22.7906 26.7723 22.6767 26.8304 22.5502C26.8884 22.4237 26.9197 22.2872 26.9222 22.1487C26.9247 22.0103 26.8984 21.8727 26.845 21.7443C26.7916 21.6159 26.712 21.4992 26.6111 21.4013C26.5102 21.3034 26.3901 21.2262 26.2578 21.1743C26.1255 21.1225 25.9838 21.097 25.8411 21.0994C25.6984 21.1019 25.5577 21.1322 25.4274 21.1886C25.2971 21.2449 25.1798 21.3262 25.0825 21.4275L22.2917 24.1362L21.6258 23.49C21.4244 23.3078 21.158 23.2087 20.8828 23.2134C20.6075 23.2181 20.3449 23.3263 20.1502 23.5153C19.9555 23.7042 19.844 23.9591 19.8392 24.2263C19.8343 24.4934 19.9365 24.752 20.1242 24.9475L21.5408 26.3225C21.7401 26.5156 22.0101 26.6241 22.2917 26.6241C22.5732 26.6241 22.8433 26.5156 23.0425 26.3225L26.5842 22.885Z" fill="#5C9CD5"/>
</svg>
