<svg width="45" height="45" viewBox="0 0 45 45" fill="none" xmlns="http://www.w3.org/2000/svg">
<rect width="45" height="45" rx="5" fill="#E3F0FC"/>
<path d="M16.0132 16.2501C14.4971 17.9433 13.6484 20.1299 13.625 22.4025C13.5674 27.5953 17.8071 31.8653 23 31.8751C28.1855 31.8849 32.375 27.6842 32.375 22.5001C32.375 17.3956 28.2954 13.2418 23.2197 13.1251C23.1911 13.1242 23.1627 13.129 23.136 13.1394C23.1094 13.1497 23.0851 13.1653 23.0645 13.1852C23.044 13.2051 23.0278 13.2289 23.0167 13.2553C23.0056 13.2816 22.9999 13.3099 23 13.3385V17.422" stroke="#5CA2D5" stroke-linecap="round" stroke-linejoin="round"/>
<path d="M21.8956 23.6049L18.0381 18.0873C17.9848 18.0109 17.96 17.9181 17.9682 17.8252C17.9764 17.7324 18.017 17.6453 18.0829 17.5794C18.1489 17.5135 18.2359 17.4729 18.3288 17.4647C18.4216 17.4565 18.5144 17.4812 18.5909 17.5346L24.1085 21.392C24.4469 21.6358 24.6758 22.0029 24.7456 22.4141C24.8154 22.8253 24.7205 23.2475 24.4814 23.5892C24.2424 23.931 23.8784 24.1649 23.4682 24.2404C23.0581 24.3159 22.6347 24.2269 22.2896 23.9926C22.137 23.8869 22.0037 23.7558 21.8956 23.6049Z" fill="#5CA2D5"/>
</svg>
