<svg width="45" height="45" viewBox="0 0 45 45" fill="none" xmlns="http://www.w3.org/2000/svg">
<rect width="45" height="45" rx="5" fill="#E3F0FC"/>
<path d="M33 27.071C32.9999 28.4386 32.5326 29.7652 31.6755 30.8309C30.8183 31.8967 29.6228 32.6376 28.287 32.931L27.649 31.017C28.2333 30.9209 28.789 30.6964 29.276 30.3595C29.763 30.0226 30.1691 29.5819 30.465 29.069H28C27.4696 29.069 26.9609 28.8583 26.5858 28.4832C26.2107 28.1081 26 27.5994 26 27.069V23.069C26 22.5385 26.2107 22.0298 26.5858 21.6548C26.9609 21.2797 27.4696 21.069 28 21.069H30.938C30.694 19.1359 29.7529 17.3582 28.2914 16.0696C26.8299 14.781 24.9484 14.07 23 14.07C21.0516 14.07 19.1701 14.781 17.7086 16.0696C16.2471 17.3582 15.306 19.1359 15.062 21.069H18C18.5304 21.069 19.0391 21.2797 19.4142 21.6548C19.7893 22.0298 20 22.5385 20 23.069V27.069C20 27.5994 19.7893 28.1081 19.4142 28.4832C19.0391 28.8583 18.5304 29.069 18 29.069H15C14.4696 29.069 13.9609 28.8583 13.5858 28.4832C13.2107 28.1081 13 27.5994 13 27.069V22.069C13 16.546 17.477 12.069 23 12.069C28.523 12.069 33 16.546 33 22.069V27.071Z" fill="#5C9CD5"/>
</svg>
