<svg width="21" height="21" viewBox="0 0 21 21" fill="none" xmlns="http://www.w3.org/2000/svg">
<path d="M2.58333 20.1177C1.87292 20.1177 1.26497 19.865 0.7595 19.3595C0.254027 18.854 0.000861111 18.2457 0 17.5344V14.9511C0 14.5851 0.124 14.2785 0.372 14.0314C0.62 13.7843 0.926556 13.6603 1.29167 13.6594C1.65678 13.6585 1.96376 13.7825 2.21262 14.0314C2.46149 14.2803 2.58506 14.5868 2.58333 14.9511V17.5344H18.0833V14.9511C18.0833 14.5851 18.2073 14.2785 18.4553 14.0314C18.7033 13.7843 19.0099 13.6603 19.375 13.6594C19.7401 13.6585 20.0471 13.7825 20.296 14.0314C20.5448 14.2803 20.6684 14.5868 20.6667 14.9511V17.5344C20.6667 18.2448 20.4139 18.8532 19.9085 19.3595C19.403 19.8659 18.7946 20.1186 18.0833 20.1177H2.58333ZM9.04167 4.42398L6.61979 6.84585C6.36146 7.10419 6.0549 7.22819 5.70012 7.21785C5.34535 7.20752 5.03836 7.07275 4.77917 6.81356C4.54236 6.55523 4.41836 6.25384 4.40717 5.90939C4.39597 5.56495 4.51997 5.26356 4.77917 5.00523L9.42917 0.355228C9.55833 0.226061 9.69826 0.134783 9.84896 0.0813945C9.99965 0.0280056 10.1611 0.000880983 10.3333 1.9872e-05C10.5056 -0.000841239 10.667 0.0262834 10.8177 0.0813945C10.9684 0.136506 11.1083 0.227783 11.2375 0.355228L15.8875 5.00523C16.1458 5.26356 16.2698 5.56495 16.2595 5.90939C16.2492 6.25384 16.1252 6.55523 15.8875 6.81356C15.6292 7.07189 15.3226 7.20666 14.9678 7.21785C14.6131 7.22905 14.3061 7.10505 14.0469 6.84585L11.625 4.42398V13.6594C11.625 14.0254 11.501 14.3324 11.253 14.5804C11.005 14.8284 10.6984 14.9519 10.3333 14.9511C9.96822 14.9502 9.66167 14.8262 9.41367 14.5791C9.16567 14.3319 9.04167 14.0254 9.04167 13.6594V4.42398Z" fill="#AAAAAA"/>
</svg>
